<svg width="1665" height="876" xmlns="http://www.w3.org/2000/svg" xmlns:xlink="http://www.w3.org/1999/xlink" overflow="hidden"><defs><filter id="fx0" x="-10%" y="-10%" width="120%" height="120%" filterUnits="userSpaceOnUse" primitiveUnits="userSpaceOnUse"><feComponentTransfer color-interpolation-filters="sRGB"><feFuncR type="discrete" tableValues="0 0"/><feFuncG type="discrete" tableValues="0 0"/><feFuncB type="discrete" tableValues="0 0"/><feFuncA type="linear" slope="0.631373" intercept="0"/></feComponentTransfer><feGaussianBlur stdDeviation="6.875 6.875"/></filter><filter id="fx1" x="-10%" y="-10%" width="120%" height="120%" filterUnits="userSpaceOnUse" primitiveUnits="userSpaceOnUse"><feComponentTransfer color-interpolation-filters="sRGB"><feFuncR type="discrete" tableValues="0 0"/><feFuncG type="discrete" tableValues="0 0"/><feFuncB type="discrete" tableValues="0 0"/><feFuncA type="linear" slope="0.631373" intercept="0"/></feComponentTransfer><feGaussianBlur stdDeviation="6.875 6.875"/></filter><filter id="fx2" x="-10%" y="-10%" width="120%" height="120%" filterUnits="userSpaceOnUse" primitiveUnits="userSpaceOnUse"><feComponentTransfer color-interpolation-filters="sRGB"><feFuncR type="discrete" tableValues="0 0"/><feFuncG type="discrete" tableValues="0 0"/><feFuncB type="discrete" tableValues="0 0"/><feFuncA type="linear" slope="0.631373" intercept="0"/></feComponentTransfer><feGaussianBlur stdDeviation="6.875 6.875"/></filter><filter id="fx3" x="-10%" y="-10%" width="120%" height="120%" filterUnits="userSpaceOnUse" primitiveUnits="userSpaceOnUse"><feComponentTransfer color-interpolation-filters="sRGB"><feFuncR type="discrete" tableValues="0 0"/><feFuncG type="discrete" tableValues="0 0"/><feFuncB type="discrete" tableValues="0 0"/><feFuncA type="linear" slope="0.631373" intercept="0"/></feComponentTransfer><feGaussianBlur stdDeviation="6.875 6.875"/></filter><filter id="fx4" x="-10%" y="-10%" width="120%" height="120%" filterUnits="userSpaceOnUse" primitiveUnits="userSpaceOnUse"><feComponentTransfer color-interpolation-filters="sRGB"><feFuncR type="discrete" tableValues="0 0"/><feFuncG type="discrete" tableValues="0 0"/><feFuncB type="discrete" tableValues="0 0"/><feFuncA type="linear" slope="0.631373" intercept="0"/></feComponentTransfer><feGaussianBlur stdDeviation="6.875 6.875"/></filter><filter id="fx5" x="-10%" y="-10%" width="120%" height="120%" filterUnits="userSpaceOnUse" primitiveUnits="userSpaceOnUse"><feComponentTransfer color-interpolation-filters="sRGB"><feFuncR type="discrete" tableValues="0 0"/><feFuncG type="discrete" tableValues="0 0"/><feFuncB type="discrete" tableValues="0 0"/><feFuncA type="linear" slope="0.631373" intercept="0"/></feComponentTransfer><feGaussianBlur stdDeviation="6.875 6.875"/></filter><filter id="fx6" x="-10%" y="-10%" width="120%" height="120%" filterUnits="userSpaceOnUse" primitiveUnits="userSpaceOnUse"><feComponentTransfer color-interpolation-filters="sRGB"><feFuncR type="discrete" tableValues="0 0"/><feFuncG type="discrete" tableValues="0 0"/><feFuncB type="discrete" tableValues="0 0"/><feFuncA type="linear" slope="0.631373" intercept="0"/></feComponentTransfer><feGaussianBlur stdDeviation="6.875 6.875"/></filter><clipPath id="clip7"><rect x="533" y="173" width="1665" height="876"/></clipPath><clipPath id="clip8"><rect x="534" y="173" width="1662" height="873"/></clipPath><clipPath id="clip9"><rect x="534" y="173" width="1662" height="873"/></clipPath><clipPath id="clip10"><rect x="534" y="173" width="1662" height="873"/></clipPath><clipPath id="clip11"><rect x="534" y="173" width="1662" height="873"/></clipPath><clipPath id="clip12"><rect x="682" y="200" width="1346" height="728"/></clipPath><clipPath id="clip13"><rect x="-17" y="-17" width="77" height="77"/></clipPath><clipPath id="clip14"><rect x="0" y="0" width="138" height="138"/></clipPath><clipPath id="clip15"><rect x="682" y="200" width="1346" height="728"/></clipPath><clipPath id="clip16"><rect x="-17" y="-17" width="69" height="69"/></clipPath><clipPath id="clip17"><rect x="0" y="0" width="113" height="113"/></clipPath><clipPath id="clip18"><rect x="682" y="200" width="1346" height="728"/></clipPath><clipPath id="clip19"><rect x="-17" y="-17" width="77" height="77"/></clipPath><clipPath id="clip20"><rect x="0" y="0" width="144" height="144"/></clipPath><clipPath id="clip21"><rect x="682" y="200" width="1346" height="728"/></clipPath><clipPath id="clip22"><rect x="-17" y="-17" width="69" height="69"/></clipPath><clipPath id="clip23"><rect x="0" y="0" width="121" height="121"/></clipPath><clipPath id="clip24"><rect x="682" y="200" width="1346" height="728"/></clipPath><clipPath id="clip25"><rect x="-17" y="-17" width="103" height="103"/></clipPath><clipPath id="clip26"><rect x="0" y="0" width="232" height="232"/></clipPath><clipPath id="clip27"><rect x="682" y="200" width="1346" height="728"/></clipPath><clipPath id="clip28"><rect x="-17" y="-17" width="103" height="103"/></clipPath><clipPath id="clip29"><rect x="0" y="0" width="235" height="235"/></clipPath><clipPath id="clip30"><rect x="682" y="200" width="1346" height="728"/></clipPath><clipPath id="clip31"><rect x="-17" y="-17" width="66" height="66"/></clipPath><clipPath id="clip32"><rect x="0" y="0" width="103" height="104"/></clipPath><clipPath id="clip33"><rect x="682" y="200" width="1346" height="728"/></clipPath><linearGradient x1="1768" y1="706" x2="1768" y2="800" gradientUnits="userSpaceOnUse" spreadMethod="reflect" id="fill34"><stop offset="0" stop-color="#6083CB"/><stop offset="0.5" stop-color="#3E70CA"/><stop offset="1" stop-color="#2E61BA"/></linearGradient><clipPath id="clip35"><rect x="682" y="200" width="1346" height="728"/></clipPath><linearGradient x1="943.5" y1="596" x2="943.5" y2="665" gradientUnits="userSpaceOnUse" spreadMethod="reflect" id="fill36"><stop offset="0" stop-color="#F18C55"/><stop offset="0.5" stop-color="#F67B28"/><stop offset="1" stop-color="#E56B17"/></linearGradient><clipPath id="clip37"><rect x="682" y="200" width="1346" height="728"/></clipPath><linearGradient x1="1323" y1="490" x2="1323" y2="590" gradientUnits="userSpaceOnUse" spreadMethod="reflect" id="fill38"><stop offset="0" stop-color="#AFAFAF"/><stop offset="0.5" stop-color="#A5A5A5"/><stop offset="1" stop-color="#929292"/></linearGradient><clipPath id="clip39"><rect x="682" y="200" width="1346" height="728"/></clipPath><clipPath id="clip40"><rect x="682" y="200" width="1346" height="728"/></clipPath><linearGradient x1="1350" y1="374" x2="1350" y2="562" gradientUnits="userSpaceOnUse" spreadMethod="reflect" id="fill41"><stop offset="0" stop-color="#71A6DB"/><stop offset="0.5" stop-color="#559BDB"/><stop offset="1" stop-color="#438AC9"/></linearGradient><clipPath id="clip42"><rect x="682" y="200" width="1346" height="728"/></clipPath><linearGradient x1="1595.5" y1="313" x2="1595.5" y2="504" gradientUnits="userSpaceOnUse" spreadMethod="reflect" id="fill43"><stop offset="0" stop-color="#81B861"/><stop offset="0.5" stop-color="#6FB242"/><stop offset="1" stop-color="#61A235"/></linearGradient><clipPath id="clip44"><rect x="682" y="200" width="1346" height="728"/></clipPath><linearGradient x1="759.5" y1="225" x2="759.5" y2="285" gradientUnits="userSpaceOnUse" spreadMethod="reflect" id="fill45"><stop offset="0" stop-color="#AB6247"/><stop offset="0.5" stop-color="#A54707"/><stop offset="1" stop-color="#983C00"/></linearGradient><clipPath id="clip46"><rect x="534" y="173" width="1662" height="873"/></clipPath><clipPath id="clip47"><rect x="534" y="173" width="1662" height="873"/></clipPath><clipPath id="clip48"><rect x="534" y="173" width="1662" height="873"/></clipPath><clipPath id="clip49"><rect x="534" y="173" width="1662" height="873"/></clipPath><clipPath id="clip50"><rect x="534" y="173" width="1662" height="873"/></clipPath><clipPath id="clip51"><rect x="534" y="173" width="1662" height="873"/></clipPath><clipPath id="clip52"><rect x="534" y="173" width="1662" height="873"/></clipPath><clipPath id="clip53"><rect x="534" y="173" width="1662" height="873"/></clipPath><clipPath id="clip54"><rect x="534" y="173" width="1662" height="873"/></clipPath><clipPath id="clip55"><rect x="534" y="173" width="1662" height="873"/></clipPath><clipPath id="clip56"><rect x="534" y="173" width="1662" height="873"/></clipPath><clipPath id="clip57"><rect x="534" y="173" width="1662" height="873"/></clipPath><clipPath id="clip58"><rect x="534" y="173" width="1662" height="873"/></clipPath><clipPath id="clip59"><rect x="534" y="173" width="1662" height="873"/></clipPath><clipPath id="clip60"><rect x="534" y="173" width="1662" height="873"/></clipPath><clipPath id="clip61"><rect x="534" y="173" width="1662" height="873"/></clipPath><clipPath id="clip62"><rect x="534" y="173" width="1662" height="873"/></clipPath><clipPath id="clip63"><rect x="534" y="173" width="1662" height="873"/></clipPath><clipPath id="clip64"><rect x="534" y="173" width="1662" height="873"/></clipPath><clipPath id="clip65"><rect x="534" y="173" width="1662" height="873"/></clipPath><clipPath id="clip66"><rect x="534" y="173" width="1662" height="873"/></clipPath><clipPath id="clip67"><rect x="534" y="173" width="1662" height="873"/></clipPath><clipPath id="clip68"><rect x="534" y="173" width="1662" height="873"/></clipPath><clipPath id="clip69"><rect x="534" y="173" width="1662" height="873"/></clipPath><clipPath id="clip70"><rect x="534" y="173" width="1662" height="873"/></clipPath><clipPath id="clip71"><rect x="534" y="173" width="1662" height="873"/></clipPath><clipPath id="clip72"><rect x="534" y="173" width="1663" height="874"/></clipPath><clipPath id="clip73"><rect x="456" y="266" width="625" height="62"/></clipPath><clipPath id="clip74"><rect x="534" y="173" width="1663" height="874"/></clipPath><clipPath id="clip75"><rect x="534" y="173" width="1663" height="874"/></clipPath><clipPath id="clip76"><rect x="534" y="173" width="1663" height="874"/></clipPath><clipPath id="clip77"><rect x="534" y="173" width="1663" height="874"/></clipPath><clipPath id="clip78"><rect x="534" y="173" width="1663" height="874"/></clipPath><clipPath id="clip79"><rect x="534" y="173" width="1663" height="874"/></clipPath></defs><g clip-path="url(#clip7)" transform="translate(-533 -173)"><rect x="534" y="174" width="1662" height="873" fill="#FFFFFF"/><g clip-path="url(#clip8)"><path d="M0 0 0.000360892 725" stroke="#000000" stroke-width="3.4375" stroke-linejoin="round" stroke-miterlimit="10" fill="none" fill-rule="evenodd" transform="matrix(1 0 0 -1 682.5 925.5)"/></g><g clip-path="url(#clip9)"><path d="M669.5 925.5 682.5 925.5M669.5 834.528 682.5 834.528M669.5 743.525 682.5 743.525M669.5 653.522 682.5 653.522M669.5 562.519 682.5 562.519M669.5 472.516 682.5 472.516M669.5 381.513 682.5 381.513M669.5 291.51 682.5 291.51M669.5 200.5 682.5 200.5" stroke="#000000" stroke-width="3.4375" stroke-linejoin="round" stroke-miterlimit="10" fill="none"/></g><g clip-path="url(#clip10)"><path d="M682.5 925.5 2024.5 925.5" stroke="#000000" stroke-width="3.4375" stroke-linejoin="round" stroke-miterlimit="10" fill="none" fill-rule="evenodd"/></g><g clip-path="url(#clip11)"><path d="M682.5 925.5 682.5 938.5M874.529 925.5 874.529 938.5M1066.54 925.5 1066.54 938.5M1257.54 925.5 1257.54 938.5M1449.55 925.5 1449.55 938.5M1641.55 925.5 1641.55 938.5M1832.56 925.5 1832.56 938.5M2024.5 925.5 2024.5 938.5" stroke="#000000" stroke-width="3.4375" stroke-linejoin="round" stroke-miterlimit="10" fill="none"/></g><g clip-path="url(#clip12)"><g clip-path="url(#clip13)" filter="url(#fx0)" transform="translate(1699 691)"><g clip-path="url(#clip14)"><path d="M22.0001 68.875C22.0001 42.9176 43.0427 21.8751 69 21.8751 94.9574 21.8751 116 42.9176 116 68.875 116 94.8323 94.9574 115.875 69 115.875 43.0427 115.875 22.0001 94.8323 22.0001 68.875Z" fill="#FF0000" fill-rule="evenodd"/></g></g></g><g clip-path="url(#clip15)"><g clip-path="url(#clip16)" filter="url(#fx1)" transform="translate(887 581)"><g clip-path="url(#clip17)"><path d="M21.9999 56.3751C21.9999 37.3213 37.4461 21.8751 56.4999 21.8751 75.5538 21.8751 91 37.3213 91 56.3751 91 75.429 75.5538 90.8752 56.4999 90.8752 37.4461 90.8752 21.9999 75.429 21.9999 56.3751Z" fill="#FF0000" fill-rule="evenodd"/></g></g></g><g clip-path="url(#clip18)"><g clip-path="url(#clip19)" filter="url(#fx2)" transform="translate(1251 475)"><g clip-path="url(#clip20)"><path d="M21.9999 71.8749C21.9999 44.2606 44.3856 21.8748 71.9999 21.8748 99.6141 21.8748 122 44.2606 122 71.8749 122 99.4891 99.6141 121.875 71.9999 121.875 44.3856 121.875 21.9999 99.4891 21.9999 71.8749Z" fill="#FF0000" fill-rule="evenodd"/></g></g></g><g clip-path="url(#clip21)"><g clip-path="url(#clip22)" filter="url(#fx3)" transform="translate(914 256)"><g clip-path="url(#clip23)"><path d="M22.0001 60.3749C22.0001 39.1119 39.2371 21.8749 60.5001 21.8749 81.763 21.8749 99.0001 39.1119 99.0001 60.3749 99.0001 81.6378 81.763 98.8749 60.5001 98.8749 39.2371 98.8749 22.0001 81.6378 22.0001 60.3749Z" fill="#7030A0" fill-rule="evenodd"/></g></g></g><g clip-path="url(#clip24)"><g clip-path="url(#clip25)" filter="url(#fx4)" transform="translate(1234 359)"><g clip-path="url(#clip26)"><path d="M22.0001 115.875C22.0001 63.9602 64.0854 21.875 116 21.875 167.915 21.875 210 63.9602 210 115.875 210 167.79 167.915 209.875 116 209.875 64.0854 209.875 22.0001 167.79 22.0001 115.875Z" fill="#FF0000" fill-rule="evenodd"/></g></g></g><g clip-path="url(#clip27)"><g clip-path="url(#clip28)" filter="url(#fx5)" transform="translate(1478 298)"><g clip-path="url(#clip29)"><path d="M22.0001 117.375C22.0001 64.6319 64.7569 21.8752 117.5 21.8752 170.243 21.8752 213 64.6319 213 117.375 213 170.118 170.243 212.875 117.5 212.875 64.7569 212.875 22.0001 170.118 22.0001 117.375Z" fill="#FF0000" fill-rule="evenodd"/></g></g></g><g clip-path="url(#clip30)"><g clip-path="url(#clip31)" filter="url(#fx6)" transform="translate(708 210)"><g clip-path="url(#clip32)"><path d="M22.0001 51.8751C22.0001 35.3066 35.2077 21.8752 51.5 21.8752 67.7923 21.8752 80.9999 35.3066 80.9999 51.8751 80.9999 68.4436 67.7923 81.875 51.5 81.875 35.2077 81.875 22.0001 68.4436 22.0001 51.8751Z" fill="#FF0000" fill-rule="evenodd"/></g></g></g><g clip-path="url(#clip33)"><path d="M1721 753C1721 727.043 1742.04 706 1768 706 1793.96 706 1815 727.043 1815 753 1815 778.957 1793.96 800 1768 800 1742.04 800 1721 778.957 1721 753Z" fill="url(#fill34)" fill-rule="evenodd"/></g><g clip-path="url(#clip35)"><path d="M909 630.5C909 611.446 924.446 596 943.5 596 962.554 596 978 611.446 978 630.5 978 649.554 962.554 665 943.5 665 924.446 665 909 649.554 909 630.5Z" fill="url(#fill36)" fill-rule="evenodd"/></g><g clip-path="url(#clip37)"><path d="M1273 540C1273 512.386 1295.39 490 1323 490 1350.61 490 1373 512.386 1373 540 1373 567.614 1350.61 590 1323 590 1295.39 590 1273 567.614 1273 540Z" fill="url(#fill38)" fill-rule="evenodd"/></g><g clip-path="url(#clip39)"><path d="M936 309.5C936 288.237 953.237 271 974.5 271 995.763 271 1013 288.237 1013 309.5 1013 330.763 995.763 348 974.5 348 953.237 348 936 330.763 936 309.5Z" fill="#7030A0" fill-rule="evenodd"/></g><g clip-path="url(#clip40)"><path d="M1256 468C1256 416.085 1298.09 374 1350 374 1401.91 374 1444 416.085 1444 468 1444 519.915 1401.91 562 1350 562 1298.09 562 1256 519.915 1256 468Z" fill="url(#fill41)" fill-rule="evenodd"/></g><g clip-path="url(#clip42)"><path d="M1500 408.5C1500 355.757 1542.76 313 1595.5 313 1648.24 313 1691 355.757 1691 408.5 1691 461.243 1648.24 504 1595.5 504 1542.76 504 1500 461.243 1500 408.5Z" fill="url(#fill43)" fill-rule="evenodd"/></g><g clip-path="url(#clip44)"><path d="M730 255C730 238.432 743.208 225 759.5 225 775.792 225 789 238.432 789 255 789 271.569 775.792 285 759.5 285 743.208 285 730 271.569 730 255Z" fill="url(#fill45)" fill-rule="evenodd"/></g><g clip-path="url(#clip46)"><text fill="#404040" font-family="Calibri,Calibri_MSFontService,sans-serif" font-weight="400" font-size="41" transform="matrix(1 0 0 1 1819.66 725)">87.8</text></g><g clip-path="url(#clip47)"><text fill="#404040" font-family="Calibri,Calibri_MSFontService,sans-serif" font-weight="400" font-size="41" transform="matrix(1 0 0 1 987.987 603)">90.5</text></g><g clip-path="url(#clip48)"><text fill="#404040" font-family="Calibri,Calibri_MSFontService,sans-serif" font-weight="400" font-size="41" transform="matrix(1 0 0 1 1190.89 586)">92.5</text></g><g clip-path="url(#clip49)"><text fill="#404040" font-family="Calibri,Calibri_MSFontService,sans-serif" font-weight="400" font-size="41" transform="matrix(1 0 0 1 938.096 251)">97.6</text></g><g clip-path="url(#clip50)"><text fill="#404040" font-family="Calibri,Calibri_MSFontService,sans-serif" font-weight="400" font-size="41" transform="matrix(1 0 0 1 1409.49 379)">94.1</text></g><g clip-path="url(#clip51)"><text fill="#404040" font-family="Calibri,Calibri_MSFontService,sans-serif" font-weight="400" font-size="41" transform="matrix(1 0 0 1 1678.61 337)">95.4</text></g><g clip-path="url(#clip52)"><text fill="#404040" font-family="Calibri,Calibri_MSFontService,sans-serif" font-weight="400" font-size="41" transform="matrix(1 0 0 1 789.469 228)">98.8</text></g><g clip-path="url(#clip53)"><text fill="#595959" font-family="Calibri,Calibri_MSFontService,sans-serif" font-weight="400" font-size="41" transform="matrix(1 0 0 1 602.826 937)">84</text></g><g clip-path="url(#clip54)"><text fill="#595959" font-family="Calibri,Calibri_MSFontService,sans-serif" font-weight="400" font-size="41" transform="matrix(1 0 0 1 602.826 846)">86</text></g><g clip-path="url(#clip55)"><text fill="#595959" font-family="Calibri,Calibri_MSFontService,sans-serif" font-weight="400" font-size="41" transform="matrix(1 0 0 1 602.826 755)">88</text></g><g clip-path="url(#clip56)"><text fill="#595959" font-family="Calibri,Calibri_MSFontService,sans-serif" font-weight="400" font-size="41" transform="matrix(1 0 0 1 602.826 665)">90</text></g><g clip-path="url(#clip57)"><text fill="#595959" font-family="Calibri,Calibri_MSFontService,sans-serif" font-weight="400" font-size="41" transform="matrix(1 0 0 1 602.826 574)">92</text></g><g clip-path="url(#clip58)"><text fill="#595959" font-family="Calibri,Calibri_MSFontService,sans-serif" font-weight="400" font-size="41" transform="matrix(1 0 0 1 602.826 484)">94</text></g><g clip-path="url(#clip59)"><text fill="#595959" font-family="Calibri,Calibri_MSFontService,sans-serif" font-weight="400" font-size="41" transform="matrix(1 0 0 1 602.826 393)">96</text></g><g clip-path="url(#clip60)"><text fill="#595959" font-family="Calibri,Calibri_MSFontService,sans-serif" font-weight="400" font-size="41" transform="matrix(1 0 0 1 602.826 303)">98</text></g><g clip-path="url(#clip61)"><text fill="#595959" font-family="Calibri,Calibri_MSFontService,sans-serif" font-weight="400" font-size="41" transform="matrix(1 0 0 1 581.926 212)">100</text></g><g clip-path="url(#clip62)"><text fill="#595959" font-family="Calibri,Calibri_MSFontService,sans-serif" font-weight="400" font-size="41" transform="matrix(1 0 0 1 672.443 990)">0</text></g><g clip-path="url(#clip63)"><text fill="#595959" font-family="Calibri,Calibri_MSFontService,sans-serif" font-weight="400" font-size="41" transform="matrix(1 0 0 1 853.682 990)">50</text></g><g clip-path="url(#clip64)"><text fill="#595959" font-family="Calibri,Calibri_MSFontService,sans-serif" font-weight="400" font-size="41" transform="matrix(1 0 0 1 1034.92 990)">100</text></g><g clip-path="url(#clip65)"><text fill="#595959" font-family="Calibri,Calibri_MSFontService,sans-serif" font-weight="400" font-size="41" transform="matrix(1 0 0 1 1226.61 990)">150</text></g><g clip-path="url(#clip66)"><text fill="#595959" font-family="Calibri,Calibri_MSFontService,sans-serif" font-weight="400" font-size="41" transform="matrix(1 0 0 1 1418.3 990)">200</text></g><g clip-path="url(#clip67)"><text fill="#595959" font-family="Calibri,Calibri_MSFontService,sans-serif" font-weight="400" font-size="41" transform="matrix(1 0 0 1 1609.98 990)">250</text></g><g clip-path="url(#clip68)"><text fill="#595959" font-family="Calibri,Calibri_MSFontService,sans-serif" font-weight="400" font-size="41" transform="matrix(1 0 0 1 1801.67 990)">300</text></g><g clip-path="url(#clip69)"><text fill="#595959" font-family="Calibri,Calibri_MSFontService,sans-serif" font-weight="400" font-size="41" transform="matrix(1 0 0 1 1993.36 990)">350</text></g><g clip-path="url(#clip70)"><text fill="#595959" font-family="Times New Roman,Times New Roman_MSFontService,sans-serif" font-weight="700" font-size="50" transform="matrix(6.12323e-17 -1 1 6.12323e-17 593.441 800)">Accuracy (%)</text></g><g clip-path="url(#clip71)"><text fill="#595959" font-family="Times New Roman,Times New Roman_MSFontService,sans-serif" font-weight="700" font-size="50" transform="matrix(1 0 0 1 1230.29 1029)">Speed (ms)</text></g><rect x="534.5" y="174.5" width="1662" height="873" stroke="#000000" stroke-width="3.4375" stroke-linejoin="round" stroke-miterlimit="10" fill="none"/><g clip-path="url(#clip72)"><g clip-path="url(#clip73)"><text fill="#843C0C" font-family="Times New Roman,Times New Roman_MSFontService,sans-serif" font-weight="400" font-size="46" transform="matrix(1 0 0 1 724.2 326)">Ours</text></g></g><g clip-path="url(#clip74)"><text fill="#7030A0" font-family="Times New Roman,Times New Roman_MSFontService,sans-serif" font-weight="400" font-size="46" transform="matrix(1 0 0 1 829.085 393)">FDEM+ResNet18</text></g><g clip-path="url(#clip75)"><text fill="#4472C4" font-family="Times New Roman,Times New Roman_MSFontService,sans-serif" font-weight="400" font-size="46" transform="matrix(1 0 0 1 1450.14 532)">ViT</text></g><g clip-path="url(#clip76)"><text fill="#2F5597" font-family="Times New Roman,Times New Roman_MSFontService,sans-serif" font-weight="400" font-size="46" transform="matrix(1 0 0 1 1704.96 845)">VGG16</text></g><g clip-path="url(#clip77)"><text fill="#F4B183" font-family="Times New Roman,Times New Roman_MSFontService,sans-serif" font-weight="400" font-size="46" transform="matrix(1 0 0 1 859.179 715)">ResNet18</text></g><g clip-path="url(#clip78)"><text fill="#7F7F7F" font-family="Times New Roman,Times New Roman_MSFontService,sans-serif" font-weight="400" font-size="46" transform="matrix(1 0 0 1 1246.45 646)">ResNet50</text></g><g clip-path="url(#clip79)"><text fill="#548235" font-family="Times New Roman,Times New Roman_MSFontService,sans-serif" font-weight="400" font-size="46" transform="matrix(1 0 0 1 1689.79 492)">BiFormer</text></g></g></svg>